<?xml version="1.0" encoding="UTF-8"?>
<svg id="Layer_2" data-name="Layer 2" xmlns="http://www.w3.org/2000/svg" viewBox="0 0 760.21 79.53">
  <defs>
    <style>
      .cls-1 {
        stroke-width: 0px;
      }
    </style>
  </defs>
  <g id="Layer_1-2" data-name="Layer 1">
    <g id="Layer_1-3" data-name="Layer 1">
      <g>
        <path class="cls-1" d="M681.89,77.77V0h16.07l22.7,59.2h.66L744.13,0h16.07v77.77h-11.73v-43.99l.65-13.79h-.65l-22.71,57.79h-9.45l-22.7-57.79h-.65l.65,13.79v44h-11.73Z"/>
        <path class="cls-1" d="M627.55,77.77V0h11.95v66.48h33.45v11.3h-45.4Z"/>
        <path class="cls-1" d="M571.04,77.77V0h11.73v45.84l23.46-23.46h14.55v.65l-21.4,21.18,22.16,32.91v.65h-13.9l-16.51-25.42-8.36,8.25v17.16h-11.73,0Z"/>
        <path class="cls-1" d="M535.13,79.51c-5.72,0-10.75-1.3-15.1-3.91-4.34-2.61-7.75-6.12-10.21-10.53-2.46-4.49-3.7-9.48-3.7-14.99s1.23-10.46,3.7-14.88c2.46-4.49,5.87-8.04,10.21-10.64,4.34-2.61,9.38-3.91,15.1-3.91s10.64,1.34,14.99,4.02c4.34,2.61,7.75,6.12,10.21,10.53s3.7,9.38,3.7,14.88-1.23,10.5-3.7,14.99c-2.46,4.42-5.87,7.93-10.21,10.53-4.34,2.6-9.34,3.91-14.99,3.91ZM535.13,68.76c3.04,0,5.87-.72,8.47-2.17,2.61-1.52,4.71-3.66,6.3-6.41,1.66-2.82,2.5-6.19,2.5-10.1s-.83-7.24-2.5-9.99c-1.6-2.82-3.7-4.96-6.3-6.41-2.61-1.52-5.43-2.28-8.47-2.28s-5.9.76-8.58,2.28c-2.61,1.45-4.75,3.59-6.41,6.41-1.6,2.75-2.39,6.08-2.39,9.99s.79,7.28,2.39,10.1c1.66,2.75,3.84,4.89,6.52,6.41,2.68,1.45,5.5,2.17,8.47,2.17Z"/>
        <path class="cls-1" d="M472.62,79.51c-5.72,0-10.75-1.3-15.1-3.91-4.34-2.61-7.75-6.12-10.21-10.53-2.46-4.49-3.7-9.48-3.7-14.99s1.23-10.46,3.7-14.88c2.46-4.49,5.87-8.04,10.21-10.64,4.34-2.61,9.38-3.91,15.1-3.91s10.64,1.34,14.99,4.02c4.34,2.61,7.75,6.12,10.21,10.53s3.7,9.38,3.7,14.88-1.23,10.5-3.7,14.99c-2.46,4.42-5.87,7.93-10.21,10.53-4.34,2.61-9.34,3.91-14.99,3.91ZM472.62,68.76c3.04,0,5.87-.72,8.47-2.17,2.61-1.52,4.71-3.66,6.3-6.41,1.66-2.82,2.5-6.19,2.5-10.1s-.83-7.24-2.5-9.99c-1.6-2.82-3.7-4.96-6.3-6.41-2.61-1.52-5.43-2.28-8.47-2.28s-5.9.76-8.58,2.28c-2.61,1.45-4.75,3.59-6.41,6.41-1.6,2.75-2.39,6.08-2.39,9.99s.79,7.28,2.39,10.1c1.66,2.75,3.84,4.89,6.52,6.41,2.68,1.45,5.5,2.17,8.47,2.17Z"/>
        <path class="cls-1" d="M412.42,79.51c-2.82,0-5.39-.44-7.71-1.3s-4.34-1.99-6.08-3.37c-1.66-1.45-3-2.93-4.02-4.45h-.65v7.39h-11.08V0h11.73v22.16l-.65,7.71h.65c1.01-1.6,2.35-3.08,4.02-4.45,1.74-1.45,3.77-2.61,6.08-3.48,2.32-.87,4.89-1.3,7.71-1.3,5.07,0,9.59,1.27,13.58,3.8,3.98,2.54,7.13,6.01,9.45,10.43,2.39,4.42,3.59,9.48,3.59,15.21s-1.2,10.79-3.59,15.21c-2.32,4.42-5.47,7.89-9.45,10.43-3.98,2.54-8.51,3.8-13.58,3.8h0ZM410.68,68.76c2.89,0,5.61-.76,8.14-2.28,2.61-1.52,4.67-3.7,6.19-6.52,1.59-2.82,2.39-6.12,2.39-9.89s-.79-7.13-2.39-9.89c-1.52-2.82-3.59-4.99-6.19-6.52-2.54-1.52-5.25-2.28-8.14-2.28s-5.61.76-8.14,2.28-4.6,3.7-6.19,6.52c-1.6,2.75-2.39,6.04-2.39,9.89s.79,7.17,2.39,9.99c1.59,2.76,3.66,4.89,6.19,6.41,2.54,1.52,5.25,2.28,8.14,2.28Z"/>
        <path class="cls-1" d="M348.96,79.51c-5.43,0-10.28-1.27-14.56-3.8-4.27-2.54-7.64-6.01-10.1-10.43-2.39-4.42-3.59-9.45-3.59-15.1,0-5.29,1.16-10.18,3.48-14.67s5.54-8.08,9.67-10.75c4.2-2.75,9.02-4.13,14.45-4.13,5.72,0,10.57,1.23,14.56,3.7,4.05,2.46,7.13,5.83,9.23,10.1s3.15,9.09,3.15,14.45c0,.79-.04,1.52-.11,2.17,0,.65-.04,1.16-.11,1.52h-42.8c.29,3.04,1.05,5.69,2.28,7.93,1.59,2.82,3.7,4.96,6.3,6.41,2.61,1.45,5.43,2.17,8.47,2.17,3.7,0,6.77-.83,9.23-2.5,2.54-1.74,4.53-3.87,5.98-6.41l9.67,4.67c-2.39,4.34-5.65,7.89-9.78,10.64-4.13,2.68-9.27,4.02-15.43,4.02h.01ZM332.89,43.78h30.74c-.07-1.38-.44-2.82-1.09-4.34-.65-1.6-1.59-3.04-2.82-4.34s-2.79-2.35-4.67-3.15c-1.88-.87-4.09-1.3-6.63-1.3-3.19,0-6.01.83-8.47,2.5-2.46,1.6-4.38,3.84-5.76,6.74-.58,1.23-1.01,2.54-1.3,3.91h0Z"/>
        <path class="cls-1" d="M282.8,22.38h9.67V6.74h11.73v15.64h13.58v10.21h-13.58v26.61c0,2.75.55,4.85,1.63,6.3,1.16,1.45,3.08,2.17,5.76,2.17,1.3,0,2.46-.18,3.48-.54,1.01-.44,2.03-.94,3.04-1.52v11.41c-1.23.5-2.54.9-3.91,1.2-1.38.29-3,.44-4.88.44-5.14,0-9.24-1.49-12.28-4.45-3.04-3.04-4.56-7.2-4.56-12.49v-29.11h-9.67v-10.21h0Z"/>
        <path class="cls-1" d="M251.76,79.51c-5.72,0-10.75-1.3-15.1-3.91-4.34-2.6-7.75-6.12-10.21-10.53-2.46-4.49-3.7-9.48-3.7-14.99s1.23-10.46,3.7-14.88c2.46-4.49,5.87-8.04,10.21-10.64,4.34-2.61,9.38-3.91,15.1-3.91s10.64,1.34,14.99,4.02c4.34,2.61,7.75,6.12,10.21,10.53s3.7,9.38,3.7,14.88-1.23,10.5-3.7,14.99c-2.46,4.42-5.87,7.93-10.21,10.53-4.34,2.6-9.34,3.91-14.99,3.91ZM251.76,68.76c3.04,0,5.87-.72,8.47-2.17,2.61-1.52,4.71-3.66,6.3-6.41,1.66-2.82,2.5-6.19,2.5-10.1s-.83-7.24-2.5-9.99c-1.59-2.82-3.7-4.96-6.3-6.41-2.61-1.52-5.43-2.28-8.47-2.28s-5.9.76-8.58,2.28c-2.61,1.45-4.75,3.59-6.41,6.41-1.59,2.75-2.39,6.08-2.39,9.99s.79,7.28,2.39,10.1c1.66,2.75,3.84,4.89,6.52,6.41,2.68,1.45,5.5,2.17,8.47,2.17h0Z"/>
        <path class="cls-1" d="M153.25,77.77V0h14.12l35.2,57.13h.65l-.65-14.99V0h11.84v77.77h-12.39l-36.93-60.07h-.65l.65,14.99v45.08h-11.84Z"/>
        <path class="cls-1" d="M52.96.1C23.71.1,0,23.61,0,52.62v25.15h9.76v-2.51c0-11.77,9.61-21.31,21.48-21.31s21.48,9.54,21.48,21.31v2.51h9.76v-2.51c0-17.11-13.99-30.98-31.24-30.98-6.72,0-12.94,2.1-18.03,5.69,5.33-10.51,16.31-17.73,28.99-17.73,17.91,0,32.43,14.41,32.43,32.16v13.36h9.76v-13.36c0-23.11-18.89-41.85-42.19-41.85-10.48,0-20.06,3.79-27.44,10.06,7.25-13.59,21.63-22.84,38.21-22.84,23.86,0,43.2,19.18,43.2,42.84v25.15h9.76v-25.15C105.92,23.61,82.21.1,52.96.1Z"/>
      </g>
    </g>
  </g>
</svg>